<?xml version="1.0" encoding="UTF-8"?>
<svg width="24px" height="24px" viewBox="0 0 24 24" version="1.1" xmlns="http://www.w3.org/2000/svg" xmlns:xlink="http://www.w3.org/1999/xlink">
    <!-- Generator: Sketch 53.2 (72643) - https://sketchapp.com -->
    <title>Settings</title>
    <desc>Created with Sketch.</desc>
    <g id="Page-1" stroke="none" stroke-width="1" fill="none" fill-rule="evenodd">
        <g id="Artboard" transform="translate(-99.000000, -78.000000)" fill="#FFFFFF" fill-rule="nonzero">
            <g id="Group-4" transform="translate(99.000000, 78.000000)">
                <path d="M22.6288929,9.90845002 C21.6462262,9.48103527 21.0302618,8.96655193 20.781,8.365 C20.5307235,7.76091698 20.6020072,6.9599396 20.9948513,5.96206785 L20.9948472,5.96206623 C21.3273178,5.11755034 21.1272725,4.15627247 20.4855,3.5145 L20.4855,3.5145 C19.8439235,2.87292349 18.8828606,2.67310043 18.0387204,3.00576843 C17.041833,3.39862925 16.2409266,3.46970742 15.636,3.219 C15.0330604,2.96927854 14.5180239,2.35323727 14.0908908,1.37087619 L14.0909053,1.37086986 C13.7289616,0.538437649 12.9077151,6.93868281e-15 12,7.10542736e-15 L12,7.10542736e-15 C11.0923569,7.27215869e-15 10.2712008,0.538468394 9.90941352,1.37089009 C9.48265829,2.35280381 8.96785257,2.96883992 8.365,3.219 C7.76087436,3.46976913 6.95982658,3.39859425 5.96185666,3.00547534 L5.96186408,3.00545651 C5.11747825,2.67283723 4.15622542,2.87277458 3.5145,3.5145 L3.5145,3.5145 C2.87288136,4.15611864 2.67302923,5.11723685 3.00568953,5.96144423 C3.39861788,6.95865033 3.46972748,7.75949985 3.219,8.364 C2.96882905,8.96735346 2.35275029,9.48248343 1.37076371,9.90938989 L1.37076147,9.90938472 C0.538403206,10.2712421 3.96770866e-15,11.0923872 4.88498131e-15,12 L5.32907052e-15,12 C5.44022474e-15,12.9076431 0.538468394,13.7287992 1.37089009,14.0905865 C2.35280381,14.5173417 2.96883992,15.0321474 3.219,15.635 C3.47053,16.2434178 3.3999236,17.0449148 3.00718081,18.0394909 L3.0071883,18.0394939 C2.67412209,18.8829459 2.8734132,19.8436326 3.5145,20.485 L3.5145,20.485 C4.1560868,21.1268676 5.1173635,21.3268825 5.96172705,20.9941997 C6.95880163,20.6013687 7.75955695,20.5302962 8.364,20.781 C8.96742234,21.0307247 9.48260104,21.646779 9.90953609,22.6291626 L9.90954449,22.629159 C10.2712929,23.4615472 11.0924031,24 12,24 L12,24 C12.9075859,24 13.7288634,23.4620679 14.0915012,22.6300788 C14.5195724,21.6479244 15.0367439,21.0305671 15.643,20.778 C16.2425508,20.5292552 17.0403477,20.6014562 18.0363907,20.9946028 L18.0363898,20.9946051 C18.8808784,21.3279319 19.8426639,21.128117 20.4845,20.486 L20.4845,20.486 C21.1261288,19.8440904 21.325854,18.8827205 20.9929983,18.0383612 C20.6001306,17.0418202 20.5288037,16.2413641 20.779,15.637 C21.0292374,15.0334864 21.645915,14.518074 22.629033,14.0907629 L22.6290319,14.0907604 C23.4615046,13.728927 24,12.9077081 24,12 L24,12 C24,11.0920583 23.4614888,10.2705857 22.6288948,9.90844566 Z M12,16 C9.791,16 8,14.209 8,12 C8,9.791 9.791,8 12,8 C14.209,8 16,9.791 16,12 C16,14.209 14.209,16 12,16 Z" id="Shape"></path>
            </g>
        </g>
    </g>
</svg>